<svg width="33" height="34" viewBox="0 0 33 34" fill="none" xmlns="http://www.w3.org/2000/svg">
<rect x="0.398438" y="0.458984" width="32.1076" height="33.4454" rx="8.12645" fill="#E02844"/>
<g clip-path="url(#clip0_1_885)">
<path d="M27.0535 19.8258L27.0323 19.9107C25.5365 25.7162 19.634 29.2384 13.8056 27.7854C7.95167 26.3255 4.3877 20.3939 5.84804 14.5382L5.84806 14.5381C7.30738 8.68135 13.2386 5.11715 19.0935 6.57712L19.0935 6.57713C24.9499 8.03711 28.5135 13.9693 27.0535 19.8258Z" stroke="white" stroke-width="0.880192"/>
<path d="M21.4641 15.5616C21.6901 14.0485 20.538 13.2351 18.9628 12.6924L19.4738 10.6427L18.2257 10.3318L17.7282 12.3275C17.4006 12.2457 17.0637 12.1686 16.729 12.0922L17.23 10.0834L15.9831 9.77246L15.4717 11.8214C15.2002 11.7596 14.9337 11.6985 14.675 11.6342L14.6764 11.6278L12.9558 11.1982L12.6239 12.5307C12.6239 12.5307 13.5496 12.7429 13.5301 12.756C14.0354 12.8822 14.1271 13.2166 14.1114 13.4817L13.5293 15.8167C13.5642 15.8256 13.6093 15.8384 13.659 15.8583L13.5276 15.8256L12.7113 19.0967C12.6495 19.2502 12.4928 19.4805 12.1395 19.393C12.152 19.4112 11.2327 19.1667 11.2327 19.1667L10.6133 20.5952L12.2373 21C12.5393 21.0757 12.8353 21.1549 13.1264 21.2295L12.61 23.303L13.8563 23.614L14.368 21.5629C14.7081 21.6552 15.0385 21.7405 15.3619 21.8208L14.8523 23.8624L16.1 24.1733L16.6163 22.1041C18.7439 22.5067 20.344 22.3443 21.0167 20.4204C21.5593 18.871 20.9901 17.9773 19.8707 17.3942C20.6859 17.2055 21.2999 16.6692 21.4638 15.5616H21.4641ZM18.6131 19.559C18.2272 21.1084 15.6188 20.2711 14.7727 20.0608L15.4579 17.3142C16.3036 17.5253 19.0153 17.9432 18.6134 19.559H18.6131ZM18.9986 15.5392C18.6468 16.9485 16.4756 16.2325 15.7709 16.057L16.3921 13.5659C17.0968 13.7414 19.3654 14.0691 18.9986 15.5392V15.5392Z" fill="white"/>
</g>
<defs>
<clipPath id="clip0_1_885">
<rect width="22.7429" height="22.7429" fill="white" transform="translate(5.08057 5.81018)"/>
</clipPath>
</defs>
</svg>
