<svg width="56" height="53" viewBox="0 0 56 53" fill="none" xmlns="http://www.w3.org/2000/svg">
<rect y="1" width="56" height="51" rx="12" fill="#E02844" fill-opacity="0.1"/>
<path fill-rule="evenodd" clip-rule="evenodd" d="M21.7904 20.2522V20.0955C21.7904 17.2614 23.7091 14.7869 26.4539 14.0812C27.4684 13.8203 28.5324 13.8203 29.547 14.0812C32.2917 14.7869 34.2104 17.2614 34.2104 20.0955V20.2522H36.1729C36.9198 20.2522 37.5537 20.8 37.6619 21.5389L37.9478 23.4901C38.5107 27.3318 38.5107 31.2349 37.9478 35.0765C37.676 36.9318 36.18 38.366 34.315 38.5594L33.4928 38.6447C29.841 39.0234 26.1598 39.0234 22.508 38.6447L21.6859 38.5594C19.8208 38.366 18.3248 36.9318 18.053 35.0766C17.4901 31.2349 17.4901 27.3318 18.053 23.4901L18.3389 21.5389C18.4472 20.8 19.0811 20.2522 19.8279 20.2522H21.7904ZM26.9423 15.9804C27.6364 15.8019 28.3644 15.8019 29.0586 15.9804C30.9366 16.4633 32.2494 18.1564 32.2494 20.0955V20.2522H23.7515V20.0955C23.7515 18.1564 25.0643 16.4633 26.9423 15.9804ZM21.7904 22.2132V25.1548C21.7904 25.6963 22.2294 26.1353 22.771 26.1353C23.3125 26.1353 23.7515 25.6963 23.7515 25.1548V22.2132H32.2494V25.1548C32.2494 25.6963 32.6884 26.1353 33.2299 26.1353C33.7714 26.1353 34.2104 25.6963 34.2104 25.1548V22.2132H35.7788L36.0075 23.7744C36.5428 27.4275 36.5428 31.1391 36.0075 34.7923C35.8657 35.7599 35.0854 36.5079 34.1127 36.6088L33.2905 36.6941C29.7732 37.0588 26.2276 37.0588 22.7103 36.6941L21.8881 36.6088C20.9154 36.5079 20.1351 35.7599 19.9933 34.7923C19.4581 31.1391 19.4581 27.4275 19.9933 23.7744L20.2221 22.2132H21.7904Z" fill="#E02844"/>
</svg>
