<svg width="69" height="69" viewBox="0 0 69 69" fill="none" xmlns="http://www.w3.org/2000/svg">
<rect width="69" height="69" rx="15.3333" fill="#6461FC"/>
<g clip-path="url(#clip0_1_358)">
<path d="M45.9582 24.8707C44.0302 23.9861 41.9628 23.3343 39.8012 22.961C39.7618 22.9538 39.7225 22.9718 39.7022 23.0078C39.4364 23.4808 39.1418 24.0977 38.9356 24.5826C36.6106 24.2345 34.2976 24.2345 32.0203 24.5826C31.814 24.0869 31.5088 23.4808 31.2417 23.0078C31.2215 22.973 31.1821 22.955 31.1428 22.961C28.9823 23.3331 26.9149 23.9849 24.9858 24.8707C24.9691 24.8779 24.9548 24.8899 24.9453 24.9055C21.0238 30.7641 19.9496 36.4787 20.4766 42.1224C20.4789 42.15 20.4944 42.1764 20.5159 42.1932C23.1032 44.0932 25.6094 45.2467 28.0691 46.0113C28.1084 46.0233 28.1501 46.0089 28.1752 45.9765C28.757 45.1819 29.2757 44.3441 29.7204 43.4631C29.7466 43.4115 29.7216 43.3503 29.6679 43.3298C28.8453 43.0178 28.0619 42.6373 27.3084 42.2052C27.2488 42.1704 27.244 42.0851 27.2988 42.0443C27.4574 41.9255 27.616 41.8019 27.7674 41.677C27.7948 41.6543 27.833 41.6494 27.8652 41.6638C32.8156 43.924 38.1749 43.924 43.0669 41.6638C43.0991 41.6482 43.1372 41.6531 43.1658 41.6759C43.3173 41.8007 43.4758 41.9255 43.6356 42.0443C43.6904 42.0851 43.6869 42.1704 43.6273 42.2052C42.8737 42.6457 42.0904 43.0178 41.2665 43.3287C41.2129 43.3491 41.189 43.4115 41.2153 43.4631C41.6695 44.3429 42.1882 45.1807 42.7593 45.9753C42.7831 46.0089 42.826 46.0233 42.8654 46.0113C45.337 45.2467 47.8432 44.0932 50.4304 42.1932C50.4531 42.1764 50.4674 42.1512 50.4698 42.1236C51.1005 35.5988 49.4134 29.9311 45.9975 24.9067C45.9892 24.8899 45.9749 24.8779 45.9582 24.8707ZM30.4596 38.6859C28.9692 38.6859 27.7412 37.3176 27.7412 35.6372C27.7412 33.9568 28.9454 32.5885 30.4596 32.5885C31.9857 32.5885 33.2019 33.9688 33.178 35.6372C33.178 37.3176 31.9738 38.6859 30.4596 38.6859ZM40.5106 38.6859C39.0202 38.6859 37.7922 37.3176 37.7922 35.6372C37.7922 33.9568 38.9964 32.5885 40.5106 32.5885C42.0367 32.5885 43.2529 33.9688 43.229 35.6372C43.229 37.3176 42.0367 38.6859 40.5106 38.6859Z" fill="white"/>
</g>
<defs>
<clipPath id="clip0_1_358">
<rect width="30.2485" height="23.4319" fill="white" transform="translate(20.3516 22.7839)"/>
</clipPath>
</defs>
</svg>
