<svg width="39" height="39" viewBox="0 0 39 39" fill="none" xmlns="http://www.w3.org/2000/svg">
<rect x="0.0761719" y="0.994751" width="38" height="38" rx="9.13226" fill="#E02844"/>
<path fill-rule="evenodd" clip-rule="evenodd" d="M14.3824 15.7529L14.7254 18.8405L14.0312 18.8959C13.0631 18.9732 12.2726 19.7009 12.1157 20.6593C11.754 22.8682 11.754 25.1212 12.1157 27.3301C12.2726 28.2886 13.0631 29.0163 14.0312 29.0936L15.5273 29.213C17.8895 29.4016 20.2629 29.4016 22.6251 29.213L24.1212 29.0936C25.0893 29.0163 25.8798 28.2886 26.0367 27.3301C26.3984 25.1212 26.3984 22.8682 26.0367 20.6593C25.8798 19.7009 25.0893 18.9732 24.1212 18.8959L23.4269 18.8405L23.7699 15.7529C23.8104 15.3889 23.8104 15.0216 23.7699 14.6576L23.7471 14.4527C23.5057 12.2793 21.7971 10.5597 19.6253 10.3042C19.2604 10.2612 18.8918 10.2612 18.527 10.3042C16.3552 10.5597 14.6466 12.2793 14.4051 14.4527L14.3824 14.6576C14.3419 15.0216 14.3419 15.3889 14.3824 15.7529ZM19.45 11.7939C19.2016 11.7647 18.9507 11.7647 18.7023 11.7939C17.2237 11.9678 16.0604 13.1386 15.896 14.6184L15.8732 14.8233C15.845 15.0771 15.845 15.3334 15.8732 15.5873L16.222 18.7265C18.1228 18.6045 20.0295 18.6045 21.9303 18.7264L22.2791 15.5873C22.3073 15.3334 22.3073 15.0771 22.2791 14.8233L22.2563 14.6184C22.0919 13.1386 20.9286 11.9678 19.45 11.7939ZM19.0762 22.4947C18.2477 22.4947 17.5762 23.1663 17.5762 23.9947C17.5762 24.8232 18.2477 25.4947 19.0762 25.4947C19.9046 25.4947 20.5762 24.8232 20.5762 23.9947C20.5762 23.1663 19.9046 22.4947 19.0762 22.4947Z" fill="white"/>
</svg>
