<svg width="34" height="34" viewBox="0 0 34 34" fill="none" xmlns="http://www.w3.org/2000/svg">
<rect x="0.0766602" y="0.715332" width="33.029" height="33.029" rx="7.97317" fill="#E02844"/>
<path d="M24.5788 11.0551H8.60343C8.29769 11.0551 8.0498 11.303 8.0498 11.6088V22.8509C8.0498 23.1566 8.29769 23.4045 8.60343 23.4045H24.5788C24.8846 23.4045 25.1324 23.1567 25.1324 22.8509V11.6088C25.1324 11.303 24.8846 11.0551 24.5788 11.0551ZM23.1663 20.5547C23.4007 20.7582 23.4258 21.1132 23.2224 21.3477C23.0189 21.582 22.664 21.6073 22.4294 21.4037C22.2842 21.2777 18.619 18.0966 18.4778 17.9741L16.9596 19.2918C16.8539 19.3835 16.7225 19.4294 16.5911 19.4294C16.4597 19.4294 16.3284 19.3835 16.2227 19.2918L14.7045 17.9741C14.5632 18.0967 10.8981 21.2777 10.7528 21.4037C10.5184 21.6072 10.1633 21.5821 9.95985 21.3477C9.75638 21.1132 9.78148 20.7582 10.016 20.5547L13.8469 17.2298L10.016 13.9049C9.78152 13.7014 9.75641 13.3464 9.95985 13.1119C10.1634 12.8775 10.5184 12.8523 10.7528 13.0559C10.9428 13.2207 16.2462 17.8236 16.5911 18.123C16.8899 17.8637 22.2235 13.2346 22.4294 13.0559C22.6639 12.8523 23.0189 12.8774 23.2224 13.1119C23.4259 13.3464 23.4008 13.7014 23.1663 13.9049L19.3353 17.2298L23.1663 20.5547Z" fill="white"/>
</svg>
