<svg width="381" height="18" viewBox="0 0 381 18" fill="none" xmlns="http://www.w3.org/2000/svg">
<path d="M186.187 14.1612C189.13 14.1612 191.387 11.9578 191.387 8.98846C191.387 6.01915 189.13 3.82912 186.187 3.82912C183.245 3.82912 181.001 6.01915 181.001 8.98846C181.001 11.9578 183.258 14.1612 186.187 14.1612ZM186.187 12.6027C184.185 12.6027 182.694 11.0576 182.694 8.98846C182.694 6.93279 184.172 5.38767 186.187 5.38767C188.203 5.38767 189.681 6.93279 189.681 8.98846C189.681 11.0576 188.203 12.6027 186.187 12.6027ZM192.883 14H194.576V10.2649H196.645L198.755 14H200.69L198.379 9.96927C199.521 9.51245 200.233 8.51821 200.233 7.13432C200.233 5.14583 198.795 3.99035 196.739 3.99035H192.883V14ZM194.576 8.78692V5.48172H196.739C197.801 5.48172 198.513 6.14008 198.513 7.13432C198.513 8.12857 197.801 8.78692 196.739 8.78692H194.576Z" fill="white"/>
<rect opacity="0.1" y="8" width="162.189" height="2" fill="#C4C4C4"/>
<rect opacity="0.1" x="218.811" y="8" width="162.189" height="2" fill="#C4C4C4"/>
</svg>
