<svg width="38" height="38" viewBox="0 0 38 38" fill="none" xmlns="http://www.w3.org/2000/svg">
<rect width="38" height="38" rx="9.13226" fill="#E02844"/>
<path d="M23.4321 11.0785C22.8067 10.4532 21.7476 10.6572 21.3992 11.47L19.6399 15.5753C18.1944 15.147 16.5652 15.503 15.4236 16.6446L14.067 18.0012C13.7741 18.2941 13.7741 18.7689 14.067 19.0618L16.2088 21.2036L10.4696 26.9428C10.1767 27.2357 10.1767 27.7106 10.4696 28.0035C10.7625 28.2964 11.2374 28.2964 11.5303 28.0035L17.2695 22.2643L19.4113 24.4061C19.7042 24.699 20.1791 24.699 20.4719 24.4061L21.8285 23.0496C22.9701 21.9079 23.3262 20.2787 22.8979 18.8333L27.0031 17.0739C27.8159 16.7255 28.0199 15.6664 27.3946 15.0411L23.4321 11.0785Z" fill="white"/>
</svg>
