<svg width="38" height="38" viewBox="0 0 38 38" fill="none" xmlns="http://www.w3.org/2000/svg">
<rect width="38" height="38" rx="9.13226" fill="#E02844"/>
<path fill-rule="evenodd" clip-rule="evenodd" d="M21.385 22.4457C18.7348 24.5684 14.8553 24.4013 12.3985 21.9445C9.7625 19.3085 9.7625 15.0346 12.3985 12.3986C15.0346 9.76256 19.3084 9.76256 21.9445 12.3986C24.4013 14.8554 24.5683 18.7348 22.4457 21.3851L27.6013 26.5407C27.8942 26.8336 27.8942 27.3085 27.6013 27.6014C27.3084 27.8943 26.8335 27.8943 26.5407 27.6014L21.385 22.4457ZM13.4592 20.8839C11.4089 18.8336 11.4089 15.5095 13.4592 13.4593C15.5095 11.409 18.8336 11.409 20.8838 13.4593C22.9326 15.508 22.9341 18.8287 20.8883 20.8794C20.8868 20.8809 20.8853 20.8823 20.8838 20.8839C20.8823 20.8854 20.8808 20.8869 20.8793 20.8884C18.8287 22.9341 15.5079 22.9326 13.4592 20.8839Z" fill="white"/>
</svg>
