<svg width="39" height="39" viewBox="0 0 39 39" fill="none" xmlns="http://www.w3.org/2000/svg">
<rect width="38.6377" height="38.65" rx="10" fill="#E02844"/>
<path fill-rule="evenodd" clip-rule="evenodd" d="M16.1846 11.6397C14.8871 11.4947 13.544 11.4947 12.2466 11.6397C11.9313 11.675 11.6827 11.9246 11.6472 12.2278C11.4922 13.5526 11.4922 14.8909 11.6472 16.2156C11.6827 16.5188 11.9313 16.7685 12.2466 16.8037C13.544 16.9487 14.8871 16.9487 16.1846 16.8037C16.4999 16.7685 16.7485 16.5188 16.784 16.2156C16.9389 14.8909 16.9389 13.5526 16.784 12.2278C16.7485 11.9246 16.4999 11.675 16.1846 11.6397ZM12.0765 10.1182C13.487 9.96059 14.9442 9.96059 16.3546 10.1182C17.366 10.2313 18.185 11.0274 18.3046 12.05C18.4733 13.4929 18.4733 14.9506 18.3046 16.3935C18.185 17.4161 17.366 18.2122 16.3546 18.3252C14.9442 18.4828 13.487 18.4828 12.0765 18.3252C11.0652 18.2122 10.2462 17.4161 10.1266 16.3935C9.95781 14.9506 9.95781 13.4929 10.1266 12.05C10.2462 11.0274 11.0652 10.2313 12.0765 10.1182Z" fill="white"/>
<path fill-rule="evenodd" clip-rule="evenodd" d="M16.1846 21.8463C14.8871 21.7013 13.544 21.7013 12.2466 21.8463C11.9313 21.8815 11.6827 22.1312 11.6472 22.4344C11.4922 23.7591 11.4922 25.0974 11.6472 26.4222C11.6827 26.7254 11.9313 26.975 12.2466 27.0103C13.544 27.1553 14.8871 27.1553 16.1846 27.0103C16.4999 26.975 16.7485 26.7254 16.784 26.4222C16.9389 25.0974 16.9389 23.7591 16.784 22.4344C16.7485 22.1312 16.4999 21.8815 16.1846 21.8463ZM12.0765 20.3248C13.487 20.1672 14.9442 20.1672 16.3546 20.3248C17.366 20.4378 18.185 21.2339 18.3046 22.2565C18.4733 23.6994 18.4733 25.1571 18.3046 26.6C18.185 27.6226 17.366 28.4187 16.3546 28.5318C14.9442 28.6894 13.487 28.6894 12.0765 28.5318C11.0652 28.4187 10.2462 27.6226 10.1266 26.6C9.95781 25.1571 9.95781 23.6994 10.1266 22.2565C10.2462 21.2339 11.0652 20.4378 12.0765 20.3248Z" fill="white"/>
<path fill-rule="evenodd" clip-rule="evenodd" d="M26.3912 11.6397C25.0937 11.4947 23.7506 11.4947 22.4531 11.6397C22.1378 11.675 21.8892 11.9246 21.8538 12.2278C21.6988 13.5526 21.6988 14.8909 21.8538 16.2156C21.8892 16.5188 22.1378 16.7685 22.4531 16.8037C23.7506 16.9487 25.0937 16.9487 26.3912 16.8037C26.7064 16.7685 26.9551 16.5188 26.9905 16.2156C27.1455 14.8909 27.1455 13.5526 26.9905 12.2278C26.9551 11.9246 26.7064 11.675 26.3912 11.6397ZM22.2831 10.1182C23.6936 9.96059 25.1507 9.96059 26.5612 10.1182C27.5725 10.2313 28.3915 11.0274 28.5111 12.05C28.6799 13.4929 28.6799 14.9506 28.5111 16.3935C28.3915 17.4161 27.5725 18.2122 26.5612 18.3252C25.1507 18.4828 23.6936 18.4828 22.2831 18.3252C21.2718 18.2122 20.4527 17.4161 20.3331 16.3935C20.1644 14.9506 20.1644 13.4929 20.3331 12.05C20.4527 11.0274 21.2718 10.2313 22.2831 10.1182Z" fill="white"/>
<path fill-rule="evenodd" clip-rule="evenodd" d="M26.3912 21.8463C25.0937 21.7013 23.7506 21.7013 22.4531 21.8463C22.1378 21.8815 21.8892 22.1312 21.8538 22.4344C21.6988 23.7591 21.6988 25.0974 21.8538 26.4222C21.8892 26.7254 22.1378 26.975 22.4531 27.0103C23.7506 27.1553 25.0937 27.1553 26.3912 27.0103C26.7064 26.975 26.9551 26.7254 26.9905 26.4222C27.1455 25.0974 27.1455 23.7591 26.9905 22.4344C26.9551 22.1312 26.7064 21.8815 26.3912 21.8463ZM22.2831 20.3248C23.6936 20.1672 25.1507 20.1672 26.5612 20.3248C27.5725 20.4378 28.3915 21.2339 28.5111 22.2565C28.6799 23.6994 28.6799 25.1571 28.5111 26.6C28.3915 27.6226 27.5725 28.4187 26.5612 28.5318C25.1507 28.6894 23.6936 28.6894 22.2831 28.5318C21.2718 28.4187 20.4527 27.6226 20.3331 26.6C20.1644 25.1571 20.1644 23.6994 20.3331 22.2565C20.4527 21.2339 21.2718 20.4378 22.2831 20.3248Z" fill="white"/>
</svg>
