<svg width="39" height="39" viewBox="0 0 39 39" fill="none" xmlns="http://www.w3.org/2000/svg">
<rect x="0.0693359" y="0.103516" width="38.7931" height="38.7931" rx="8.62069" fill="#E02844"/>
<path d="M10.6967 18.9768C15.1676 17.0289 18.149 15.7447 19.6407 15.1243C23.8998 13.3528 24.7848 13.045 25.3616 13.0348C25.4885 13.0326 25.7722 13.0641 25.9559 13.2132C26.1111 13.3391 26.1538 13.5092 26.1742 13.6285C26.1946 13.7479 26.2201 14.0198 26.1998 14.2323C25.969 16.6573 24.9703 22.5423 24.4623 25.2585C24.2473 26.4077 23.824 26.7931 23.4142 26.8308C22.5235 26.9128 21.8472 26.2422 20.9846 25.6768C19.6348 24.792 18.8723 24.2411 17.562 23.3777C16.0478 22.3799 17.0294 21.8315 17.8924 20.9352C18.1182 20.7006 22.0423 17.1314 22.1182 16.8076C22.1277 16.7671 22.1366 16.6161 22.0469 16.5364C21.9572 16.4567 21.8249 16.484 21.7293 16.5056C21.594 16.5364 19.4376 17.9616 15.2603 20.7814C14.6482 21.2017 14.0938 21.4065 13.5971 21.3958C13.0495 21.384 11.9962 21.0862 11.2131 20.8316C10.2527 20.5194 9.48932 20.3544 9.55579 19.8241C9.59041 19.548 9.97073 19.2655 10.6967 18.9768Z" fill="white"/>
</svg>
