<svg width="39" height="39" viewBox="0 0 39 39" fill="none" xmlns="http://www.w3.org/2000/svg">
<rect x="0.0761719" y="0.994751" width="38" height="38" rx="9.13226" fill="#E02844"/>
<path d="M19.0762 11.7448C17.0051 11.7448 15.3262 13.4237 15.3262 15.4948C15.3262 17.5658 17.0051 19.2448 19.0762 19.2448C21.1472 19.2448 22.8262 17.5658 22.8262 15.4948C22.8262 13.4237 21.1472 11.7448 19.0762 11.7448Z" fill="white"/>
<path d="M15.0762 21.2448C13.0051 21.2448 11.3262 22.9237 11.3262 24.9948V26.183C11.3262 26.9363 11.8721 27.5785 12.6154 27.6999C16.8943 28.3985 21.2581 28.3985 25.5369 27.6999C26.2803 27.5785 26.8262 26.9363 26.8262 26.183V24.9948C26.8262 22.9237 25.1472 21.2448 23.0762 21.2448H22.7353C22.5508 21.2448 22.3675 21.2739 22.1921 21.3312L21.3266 21.6138C19.8643 22.0913 18.288 22.0913 16.8258 21.6138L15.9602 21.3312C15.7849 21.2739 15.6015 21.2448 15.417 21.2448H15.0762Z" fill="white"/>
</svg>
